{"asset":{"version":"2.0","generator":"Blockbench 4.9.4 glTF exporter"},"scenes":[{"nodes":[7],"name":"blockbench_export"}],"scene":0,"nodes":[{"name":"cube","mesh":0},{"name":"sphere","mesh":1},{"name":"torus","mesh":2},{"name":"cube","mesh":3},{"rotation":[0,0,0.3826834323650898,0.9238795325112867],"translation":[0,0.125,0],"name":"bone2","children":[3]},{"name":"cube","mesh":4},{"rotation":[0,0,0.3007057995042731,0.9537169507482269],"translation":[-0.0625,0.125,0],"name":"bone","children":[4,5]},{"children":[0,1,2,6]}],"bufferViews":[{"buffer":0,"byteOffset":0,"byteLength":288,"target":34962,"byteStride":12},{"buffer":0,"byteOffset":288,"byteLength":288,"target":34962,"byteStride":12},{"buffer":0,"byteOffset":576,"byteLength":192,"target":34962,"byteStride":8},{"buffer":0,"byteOffset":768,"byteLength":72,"target":34963},{"buffer":0,"byteOffset":840,"byteLength":3168,"target":34962,"byteStride":12},{"buffer":0,"byteOffset":4008,"byteLength":3168,"target":34962,"byteStride":12},{"buffer":0,"byteOffset":7176,"byteLength":2112,"target":34962,"byteStride":8},{"buffer":0,"byteOffset":9288,"byteLength":720,"target":34963},{"buffer":0,"byteOffset":10008,"byteLength":4608,"target":34962,"byteStride":12},{"buffer":0,"byteOffset":14616,"byteLength":4608,"target":34962,"byteStride":12},{"buffer":0,"byteOffset":19224,"byteLength":3072,"target":34962,"byteStride":8},{"buffer":0,"byteOffset":22296,"byteLength":1152,"target":34963},{"buffer":0,"byteOffset":23448,"byteLength":288,"target":34962,"byteStride":12},{"buffer":0,"byteOffset":23736,"byteLength":288,"target":34962,"byteStride":12},{"buffer":0,"byteOffset":24024,"byteLength":192,"target":34962,"byteStride":8},{"buffer":0,"byteOffset":24216,"byteLength":72,"target":34963},{"buffer":0,"byteOffset":24288,"byteLength":288,"target":34962,"byteStride":12},{"buffer":0,"byteOffset":24576,"byteLength":288,"target":34962,"byteStride":12},{"buffer":0,"byteOffset":24864,"byteLength":192,"target":34962,"byteStride":8},{"buffer":0,"byteOffset":25056,"byteLength":72,"target":34963},{"buffer":0,"byteOffset":25128,"byteLength":12},{"buffer":0,"byteOffset":25140,"byteLength":48}],"buffers":[{"byteLength":25188,"uri":"data:application/octet-stream;base64,"}],"accessors":[{"bufferView":0,"componentType":5126,"count":24,"max":[0.5,0.125,0.0625],"min":[-0.0625,0,-0.0625],"type":"VEC3"},{"bufferView":1,"componentType":5126,"count":24,"max":[1,1,1],"min":[-1,-1,-1],"type":"VEC3"},{"bufferView":2,"componentType":5126,"count":24,"max":[0.90625,0.796875],"min":[0,0.109375],"type":"VEC2"},{"bufferView":3,"componentType":5123,"count":36,"max":[23],"min":[0],"type":"SCALAR"},{"bufferView":4,"componentType":5126,"count":264,"max":[-0.1875,0.5,0.5],"min":[-1.1875,-0.5,-0.5],"type":"VEC3"},{"bufferView":5,"componentType":5126,"count":264,"max":[0.9659258127212524,0.9659258127212524,0.9659258127212524],"min":[-0.9659258127212524,-0.9659258127212524,-0.9659258127212524],"type":"VEC3"},{"bufferView":6,"componentType":5126,"count":264,"max":[0.8676729202270508,0.7403874397277832],"min":[0.005047773942351341,0.003311455249786377],"type":"VEC2"},{"bufferView":7,"componentType":5123,"count":360,"max":[263],"min":[0],"type":"SCALAR"},{"bufferView":8,"componentType":5126,"count":384,"max":[0.46875,0.09705714136362076,0.46875],"min":[-0.46875,-0.09705714136362076,-0.46875],"type":"VEC3"},{"bufferView":9,"componentType":5126,"count":384,"max":[0.9284448027610779,0.919060468673706,0.9284448027610779],"min":[-0.9284448027610779,-0.919060468673706,-0.9284448027610779],"type":"VEC3"},{"bufferView":10,"componentType":5126,"count":384,"max":[0.9362278580665588,0.8384060859680176],"min":[0.0012721370439976454,0],"type":"VEC2"},{"bufferView":11,"componentType":5123,"count":576,"max":[383],"min":[0],"type":"SCALAR"},{"bufferView":12,"componentType":5126,"count":24,"max":[0.125,0.125,0.0625],"min":[0,0,-0.0625],"type":"VEC3"},{"bufferView":13,"componentType":5126,"count":24,"max":[1,1,1],"min":[-1,-1,-1],"type":"VEC3"},{"bufferView":14,"componentType":5126,"count":24,"max":[0.65625,0.6875],"min":[0.234375,0.125],"type":"VEC2"},{"bufferView":15,"componentType":5123,"count":36,"max":[23],"min":[0],"type":"SCALAR"},{"bufferView":16,"componentType":5126,"count":24,"max":[0.125,0.125,0.0625],"min":[0,0,-0.0625],"type":"VEC3"},{"bufferView":17,"componentType":5126,"count":24,"max":[1,1,1],"min":[-1,-1,-1],"type":"VEC3"},{"bufferView":18,"componentType":5126,"count":24,"max":[0.3125,0.421875],"min":[0,0],"type":"VEC2"},{"bufferView":19,"componentType":5123,"count":36,"max":[23],"min":[0],"type":"SCALAR"},{"bufferView":20,"componentType":5126,"count":3,"max":[1],"min":[0],"type":"SCALAR"},{"bufferView":21,"componentType":5126,"count":3,"max":[0,0,0.9537169337272644,0.9537169337272644],"min":[0,0,0.30070579051971436,-0.30070579051971436],"type":"VEC4"}],"materials":[{"pbrMetallicRoughness":{"metallicFactor":0,"roughnessFactor":1,"baseColorTexture":{"index":0}},"alphaMode":"MASK","alphaCutoff":0.05,"doubleSided":true}],"textures":[{"sampler":0,"source":0}],"samplers":[{"magFilter":9728,"minFilter":9728,"wrapS":33071,"wrapT":33071}],"images":[{"mimeType":"image/png","uri":"data:image/png;base64,"}],"meshes":[{"primitives":[{"mode":4,"attributes":{"POSITION":0,"NORMAL":1,"TEXCOORD_0":2},"indices":3,"material":0}]},{"primitives":[{"mode":4,"attributes":{"POSITION":4,"NORMAL":5,"TEXCOORD_0":6},"indices":7,"material":0}]},{"primitives":[{"mode":4,"attributes":{"POSITION":8,"NORMAL":9,"TEXCOORD_0":10},"indices":11,"material":0}]},{"primitives":[{"mode":4,"attributes":{"POSITION":12,"NORMAL":13,"TEXCOORD_0":14},"indices":15,"material":0}]},{"primitives":[{"mode":4,"attributes":{"POSITION":16,"NORMAL":17,"TEXCOORD_0":18},"indices":19,"material":0}]}],"animations":[{"name":"animation","samplers":[{"input":20,"output":21,"interpolation":"LINEAR"}],"channels":[{"sampler":0,"target":{"node":6,"path":"rotation"}}]}]}